#N canvas 650 80 570 408 10;
#X obj 125 -13 import mrpeach;
#X obj 16 13 unpackOSC;
#X obj 40 77 print;
#X obj 421 77 noteout;
#X obj 421 51 makenote;
#X obj 421 -7 r note_vel_len;
#X obj 421 20 unpack f f f;
#X text 419 -32 Send midi note;
#X obj 27 324 pack f f f;
#X obj 27 349 s note_vel_len;
#X text 15 124 OSC messages;
#X text 26 197 Filter an osc message and process;
#X obj 16 -14 udpreceive 12345;
#X obj 27 248 routeOSC /notas1;
#X obj 27 225 r o2m_unpacked_osc;
#X obj 17 102 s o2m_unpacked_osc;
#X obj 27 274 unpack f f f;
#X obj 40 54 spigot;
#X obj 73 32 tgl 15 0 empty empty empty 17 7 0 10 -262144 -1 -1 0 1
;
#X text 274 202 Filter an osc message and process;
#X obj 275 230 r o2m_unpacked_osc;
#X obj 275 253 routeOSC /fcut;
#X obj 275 354 s ctrl_out;
#X obj 275 328 pack f f;
#X obj 317 291 nbx 5 14 -1e+37 1e+37 0 1 empty empty empty 0 -8 0 10
-262144 -1 -1 44 256 0;
#X obj 324 2 r ctrl_out;
#X obj 324 67 ctlout;
#X obj 324 33 unpack f f;
#X connect 1 0 15 0;
#X connect 1 0 17 0;
#X connect 4 0 3 0;
#X connect 4 1 3 1;
#X connect 5 0 6 0;
#X connect 6 0 4 0;
#X connect 6 1 4 1;
#X connect 6 2 4 2;
#X connect 8 0 9 0;
#X connect 12 0 1 0;
#X connect 13 0 16 0;
#X connect 14 0 13 0;
#X connect 16 0 8 0;
#X connect 16 1 8 1;
#X connect 16 2 8 2;
#X connect 17 0 2 0;
#X connect 18 0 17 1;
#X connect 20 0 21 0;
#X connect 21 0 23 0;
#X connect 23 0 22 0;
#X connect 24 0 23 1;
#X connect 25 0 27 0;
#X connect 27 0 26 0;
#X connect 27 1 26 1;
